<svg
        width="373"
        height="373"
        xmlns="http://www.w3.org/2000/svg"
        overflow="hidden"
>
    <g transform="translate(-1221 -136)">
        <path d="M1222 178.894C1222 155.204 1241.2 136 1264.89 136L1550.11 136C1573.8 136 1593 155.204 1593 178.894L1593 463.106C1593 486.796 1573.8 506 1550.11 506L1264.89 506C1241.2 506 1222 486.796 1222 463.106Z" fill="#404040" fill-rule="evenodd"/>
        <rect x="1264" y="211" width="288" height="248" fill="#595959"/>
        <path d="M1322.22 254.6 1322.22 236 1449 236 1449 254.6 1322.22 254.6ZM1322.22 291.8 1322.22 273.2 1449 273.2 1449 291.8 1322.22 291.8ZM1322.22 329 1322.22 310.4 1449 310.4 1449 329 1322.22 329ZM1295.06 254.6C1292.49 254.6 1290.34 253.709 1288.6 251.927 1286.87 250.144 1286 247.935 1286 245.3 1286 242.665 1286.87 240.456 1288.6 238.673 1290.34 236.891 1292.49 236 1295.06 236 1297.62 236 1299.77 236.891 1301.51 238.673 1303.24 240.456 1304.11 242.665 1304.11 245.3 1304.11 247.935 1303.24 250.144 1301.51 251.927 1299.77 253.709 1297.62 254.6 1295.06 254.6ZM1295.06 291.8C1292.49 291.8 1290.34 290.909 1288.6 289.127 1286.87 287.344 1286 285.135 1286 282.5 1286 279.865 1286.87 277.656 1288.6 275.873 1290.34 274.091 1292.49 273.2 1295.06 273.2 1297.62 273.2 1299.77 274.091 1301.51 275.873 1303.24 277.656 1304.11 279.865 1304.11 282.5 1304.11 285.135 1303.24 287.344 1301.51 289.127 1299.77 290.909 1297.62 291.8 1295.06 291.8ZM1295.06 329C1292.49 329 1290.34 328.109 1288.6 326.327 1286.87 324.544 1286 322.335 1286 319.7 1286 317.065 1286.87 314.856 1288.6 313.073 1290.34 311.291 1292.49 310.4 1295.06 310.4 1297.62 310.4 1299.77 311.291 1301.51 313.073 1303.24 314.856 1304.11 317.065 1304.11 319.7 1304.11 322.335 1303.24 324.544 1301.51 326.327 1299.77 328.109 1297.62 329 1295.06 329Z" fill="#8338EC" fill-rule="evenodd"/>
        <path d="M1322.22 358.8 1322.22 340 1449 340 1449 358.8 1322.22 358.8ZM1322.22 396.4 1322.22 377.6 1449 377.6 1449 396.4 1322.22 396.4ZM1322.22 434 1322.22 415.2 1449 415.2 1449 434 1322.22 434ZM1295.06 358.8C1292.49 358.8 1290.34 357.899 1288.6 356.098 1286.87 354.296 1286 352.064 1286 349.4 1286 346.736 1286.87 344.504 1288.6 342.702 1290.34 340.901 1292.49 340 1295.06 340 1297.62 340 1299.77 340.901 1301.51 342.702 1303.24 344.504 1304.11 346.736 1304.11 349.4 1304.11 352.064 1303.24 354.296 1301.51 356.098 1299.77 357.899 1297.62 358.8 1295.06 358.8ZM1295.06 396.4C1292.49 396.4 1290.34 395.499 1288.6 393.698 1286.87 391.896 1286 389.664 1286 387 1286 384.336 1286.87 382.104 1288.6 380.302 1290.34 378.501 1292.49 377.6 1295.06 377.6 1297.62 377.6 1299.77 378.501 1301.51 380.302 1303.24 382.104 1304.11 384.336 1304.11 387 1304.11 389.664 1303.24 391.896 1301.51 393.698 1299.77 395.499 1297.62 396.4 1295.06 396.4ZM1295.06 434C1292.49 434 1290.34 433.099 1288.6 431.298 1286.87 429.496 1286 427.264 1286 424.6 1286 421.936 1286.87 419.704 1288.6 417.902 1290.34 416.101 1292.49 415.2 1295.06 415.2 1297.62 415.2 1299.77 416.101 1301.51 417.902 1303.24 419.704 1304.11 421.936 1304.11 424.6 1304.11 427.264 1303.24 429.496 1301.51 431.298 1299.77 433.099 1297.62 434 1295.06 434Z" fill="#FFE74C" fill-rule="evenodd"/>
        <path d="M1420.37 390.736C1417.65 391.458 1415.29 390.7 1413.28 388.462 1411.27 386.224 1410.59 383.588 1411.24 380.556L1419.01 339.185 1457.5 382.072 1420.37 390.736ZM1457.5 382.072 1419.01 339.185 1508.04 239.982C1511.02 236.661 1514.71 235 1519.12 235 1523.53 235 1527.22 236.661 1530.2 239.982L1546.53 258.176C1549.51 261.497 1551 265.613 1551 270.523 1551 275.432 1549.51 279.548 1546.53 282.869L1457.5 382.072ZM1519.12 252.111 1438.65 341.784 1455.17 360.195 1535.64 270.523 1519.12 252.111Z" fill="#FF88DC" fill-rule="evenodd"/>
        <g><g><g>
                    <path d="M1407.5 187.333C1411.51 187.333 1414.92 185.93 1417.73 183.122 1420.53 180.315 1421.94 176.906 1421.94 172.896 1421.94 168.885 1420.53 165.477 1417.73 162.669 1414.92 159.862 1411.51 158.458 1407.5 158.458 1403.49 158.458 1400.08 159.862 1397.27 162.669 1394.47 165.477 1393.06 168.885 1393.06 172.896 1393.06 176.906 1394.47 180.315 1397.27 183.122 1400.08 185.93 1403.49 187.333 1407.5 187.333ZM1407.5 181.558C1405.09 181.558 1403.05 180.716 1401.36 179.032 1399.68 177.347 1398.84 175.302 1398.84 172.896 1398.84 170.49 1399.68 168.444 1401.36 166.76 1403.05 165.076 1405.09 164.233 1407.5 164.233 1409.91 164.233 1411.95 165.076 1413.64 166.76 1415.32 168.444 1416.16 170.49 1416.16 172.896 1416.16 175.302 1415.32 177.347 1413.64 179.032 1411.95 180.716 1409.91 181.558 1407.5 181.558ZM1407.5 196.958C1399.69 196.958 1392.58 194.779 1386.16 190.421 1379.75 186.063 1375.1 180.221 1372.21 172.896 1375.1 165.57 1379.75 159.728 1386.16 155.37 1392.58 151.012 1399.69 148.833 1407.5 148.833 1415.31 148.833 1422.42 151.012 1428.84 155.37 1435.25 159.728 1439.9 165.57 1442.79 172.896 1439.9 180.221 1435.25 186.063 1428.84 190.421 1422.42 194.779 1415.31 196.958 1407.5 196.958ZM1407.5 190.542C1413.54 190.542 1419.09 188.951 1424.14 185.769 1429.2 182.588 1433.06 178.297 1435.73 172.896 1433.06 167.495 1429.2 163.204 1424.14 160.022 1419.09 156.841 1413.54 155.25 1407.5 155.25 1401.46 155.25 1395.91 156.841 1390.86 160.022 1385.8 163.204 1381.94 167.495 1379.27 172.896 1381.94 178.297 1385.8 182.588 1390.86 185.769 1395.91 188.951 1401.46 190.542 1407.5 190.542Z" fill="#4CC9F0"/>
        </g></g></g>
    </g>
</svg>